# xmcd
#
# Track frame offsets:
#	150
#	16119
#	29518
#	39740
#	51955
#	66413
#	81247
#	91518
#	105544
#	119709
#	133672
#	148861
#	166725
#	176963
#	191856
#	202754
#	220750
#	232421
#	248014
#	260406
#
# Disc length: 3657
#
# Revision: 2
# Processed by: cddbd v1.5.1PL0 Copyright (c) Steve Scherf et al.
# Submitted via: CDex 1.50Beta7
# Normalized: r0:TDELIM( - );r1:DSETVAR1
#
DISCID=270e4714
DTITLE=Various Artist - As 20 Mais Country Internacional Vol 2
DYEAR=2004
DGENRE=Country
TTITLE0=Rednex - Old Pop in an Oak
TTITLE1=Jack James - Mrs. Robinson
TTITLE2=George Strait - Heartland
TTITLE3=Billy Ray Cyrus - These Roots are more for walkin
TTITLE4=Rednex - Cotton Eye Joe
TTITLE5=Rednex - Hittin' the Hay
TTITLE6=Larry Lowman - Jambalaya
TTITLE7=Terri Clark - Better things to do
TTITLE8=Alan Jackson - Summertime blues
TTITLE9=Pure Country - Where the sidewalk ends
TTITLE10=Billy Ray Cirus - Achy break heart
TTITLE11=Alan Jackson - Chattahoochee
TTITLE12=Johnny James - Hey porter
TTITLE13=Cindy Ray - If you can't give me love
TTITLE14=Alan Jackson - Tall, tall trees
TTITLE15=Shania Twain - Any man of mine
TTITLE16=Alan Jackson - Little bitty
TTITLE17=Shania Twain - I'm holding on to love
TTITLE18=Clay Walker - Only on days that end in "Y"
TTITLE19=Faith hill - Let's go to Vegas
EXTD=YEAR: 2004
EXTT0=
EXTT1=
EXTT2=
EXTT3=
EXTT4=
EXTT5=
EXTT6=
EXTT7=
EXTT8=
EXTT9=
EXTT10=
EXTT11=
EXTT12=
EXTT13=
EXTT14=
EXTT15=
EXTT16=
EXTT17=
EXTT18=
EXTT19=
PLAYORDER=
